<svg version="1.1" viewBox="0 0 1020 1020" xmlns="http://www.w3.org/2000/svg"><g transform="matrix(1.2591 0 0 1.2292 -145.94 -111.38)" stroke-width="1.5144"><path d="m797.44 277.2c13.463 3.7314 58.866 26.744 60.685 40.24 2.5578 18.955 2.1731 52.96 2.211 72.811q0.22564 75.353-0.51186 150.71l-0.19081 93.441c0.0424 16.71 0.4316 33.433-0.10298 50.138-0.47248 14.765-6.9903 20.486-18.699 27.568-18.778 11.355-37.883 22.12-56.886 33.069l-98.185 56.836-95.196 55.07c-18.089 10.358-36.425 20.668-54.82 30.484-3.5179 1.8778-7.8565 3.3892-11.797 3.8162-4.5507 0.4316-11.549-0.1-15.683-2.3185-21.165-11.365-42.734-24.056-63.473-36.059l-117.21-67.78-79.163-45.634c-18.725-10.667-39.888-21.616-56.78-34.741-7.0857-5.5062-9.4784-14.099-9.7692-22.885-0.53154-15.961-0.05-33.056-0.0348-49.15l-0.047-101.95-0.13478-126.26c0.0288-26.527-0.74961-54.09 1.5265-80.513 0.49217-5.7243 1.4795-11.264 5.4729-15.627 7.8187-8.538 63.552-39.022 76.8-46.614l95.269-55.126 93.093-53.73c17.63-10.174 35.424-20.753 53.409-30.307 8.7-4.6234 19.888-3.8995 28.552 0.63603 12.318 6.4512 24.427 13.569 36.531 20.542l61.875 35.635 97.483 56.344c13.558 7.8626 32.503 17.976 45.101 27.527 2.8001 2.1216 2.3003 8.541 2.2352 12.05l11.412 6.9176c2.161-2.32 4.3553-3.4588 7.0312-5.1261"/><path d="m740.87 267.9c12.524 8.1761 25.101 20.338 38.126 7.5113l11.412 6.9161c-0.36799 2.3094-1.1812 6.5966-0.49519 8.7712 3.851 12.185 25.458 19.959 36.734 27.127-10.896 7.1796-22.924 13.654-34.294 20.193l-53.886 31.141c-11.767-6.1589-24.836-14.3-36.461-21.141a4744.5 4744.5 0 0 0-49.424-28.505c27.118-17.771 59.634-36.019 88.288-52.014" fill="#e04d4c"/><path d="m206.02 466.05c12.854 5.5078 26.886 14.655 39.089 21.63 15.765 9.009 31.584 17.804 46.815 27.686-0.32559 12.922-1.475 28.778 1.9793 41.053 22.684 15.936 21.331-13.725 21.194-27.801 12.027 6.1544 26.945 15.389 38.974 22.178 14.542 8.2079 33.299 18.062 46.4 27.737 9e-3 11.645 0.92376 92.549-1.7082 96.826-27.436-14.539-56.515-32.919-84.391-48.323-8e-3 -9.745 2.7486-38.76-2.8743-43.529-22.67-19.211-20.221 22.455-20.1 29.666-26.623-13.499-59.59-33.483-85.262-49.059-0.38162-32.332 0.15749-65.478-0.11509-98.063" fill="#f8aa17"/><g fill="#e04d4c"><path d="m520.4 142.2c9.8661 3.8102 23.188 11.758 32.674 17.212l54.734 32.121c-26.456 16.879-59.742 35.382-87.087 50.31-5.3396-0.14538-76.653-42.676-87.288-49.093 3.8662-2.6804 8.5834-5.635 12.672-7.9868 24.693-14.202 49.134-29.23 74.295-42.564"/><path d="m629.83 205.34c4.1297-0.40585 76.724 43.218 87.773 49.53-28.185 17.253-58.106 34.017-86.826 50.598-4.7718 0.48763-36.457-19.635-42.169-23.052-14.901-8.9151-30.378-17.529-45.416-26.183 23.097-15.883 61.197-36.284 86.638-50.893"/><path d="m629.61 332.15c28.622 17.055 57.258 32.945 85.849 50.322-7.1539 5.1579-18.92 11.323-26.91 15.972l-59.189 33.99a4496.2 4496.2 0 0 1-44.913-25.266c-14.333-8.1125-27.825-15.403-41.312-24.893 26.978-16.207 59.036-34.941 86.475-50.126"/><path d="m408.6 206.13c7.3432 2.8379 22.928 12.113 30.392 16.39l57.476 33.377c-25.629 16.52-58.371 33.616-85.31 49.315-9.8646-1.8581-74.704-41.793-87.072-49.267 7.4113-5.6122 21.122-12.877 29.524-17.764z"/><path d="m518.68 269.53c8.1488 3.2422 24.392 12.862 32.108 17.32a5993.9 5993.9 0 0 1 55.029 32.407c-24.911 16.11-59.533 34.631-85.768 49.323-3.9692 0.11661-77.404-43.677-87.167-49.558a6799.5 6799.5 0 0 1 85.798-49.493"/></g><path d="m206.47 340.15a2292.8 2292.8 0 0 1 85.483 49.235l0.19233 61.347c0.0303 11.48 0.23775 26.557-0.69964 37.717a2853.1 2853.1 0 0 1-85.554-49.223c-0.45885-32.276-1.4568-66.941 0.57849-99.076" fill="#f8aa17"/><path d="m595.01 603.75c7.6112-4.4098 15.506-9.1816 23.367-13.06 1.8612 34.493 0.18324 64.925 0.81624 98.544-6.1029 3.5769-12.627 7.5749-18.866 10.813-22.722 13.372-44.215 26.13-67.622 38.268-0.88742-32.142-0.40888-65.451-0.31802-97.672 20.047-12.865 41.863-24.992 62.624-36.893" fill="#33a2b3"/><path d="m595.01 603.75c7.6112-4.4098 15.506-9.1816 23.367-13.06 1.8612 34.493 0.18324 64.925 0.81624 98.544-6.1029 3.5769-12.627 7.5749-18.866 10.813-6.6481-16.313-5.6138-76.853-5.3154-96.299" fill="#47b4cd"/><path d="m300.29 268.72c7.4007 4.7097 15.357 9.2831 22.921 13.782 17.068 9.4345 49.019 26.358 63.935 36.946-13.972 7.9353-28.549 15.963-42.169 24.404a2810.7 2810.7 0 0 1-43.014 24.687c-26.6-13.859-60.855-34.584-86.749-50.166 25.911-17.32 57.631-32.574 85.076-49.653" fill="#c5403a"/><path d="m323.21 282.51c17.067 9.4345 49.017 26.358 63.934 36.946-13.972 7.9353-28.549 15.963-42.169 24.404a60.575 60.575 0 0 1-3.3074-4.113c-10.358-13.908-21.051-39.579-18.459-57.237" fill="#e04d4c"/><path d="m519.58 395.9a2494.2 2494.2 0 0 1 54.741 31.063c9.7934 5.6804 22.822 12.827 31.883 19.314l-10.46 5.6122a3670.8 3670.8 0 0 0-43.558 25.578c-10.114 5.9636-20.326 12.365-31.146 16.885-11.023-4.7596-24.616-13.099-35.242-19.272a3878.3 3878.3 0 0 1-51.034-29.986c10.641-7.6688 25.534-15.271 37.34-21.757a428.57 428.57 0 0 1 47.475-27.437" fill="#c5403a"/><path d="m519.58 395.9a2494.2 2494.2 0 0 1 54.741 31.063c9.7934 5.6804 22.822 12.827 31.883 19.314l-10.46 5.6122c-11.873-2.9258-27.568-3.6496-38.704-5.3427-14.05-2.1353-78.429-14.78-84.936-23.209a428.57 428.57 0 0 1 47.475-27.437" fill="#e04d4c"/><path d="m361.54 360.06c15.984-8.9726 32.413-19.443 48.472-27.714 28.043 16.597 59.54 32.913 86.345 50.401l-55.701 32.354c-8.5986 5.4638-20.439 11.758-29.406 16.84l-87.191-50.25c10.446-6.7208 26.542-15.557 37.481-21.631" fill="#e04d4c"/><path d="m324.06 381.69c10.446-6.7208 26.542-15.557 37.481-21.631 8.488 20.174 59.113 45.413 79.117 55.041-8.5986 5.4638-20.439 11.758-29.406 16.84z" fill="#c5403a"/><path d="m423.8 591.21c10.217 5.1685 22.146 12.444 32.188 18.221a1727.9 1727.9 0 0 1 54.06 31.711 4228.1 4228.1 0 0 0-0.1363 62.44c0.0984 11.486 0.86925 24.434 0.0757 35.706-27.193-13.702-59.636-33.922-86.266-49.78-1.1282-9.9676-0.45128-25.416-0.47702-36.063-0.05-20.429-0.76324-41.94 0.55577-62.234" fill="#f8aa17"/><path d="m314.81 402.96c7.3477 3.165 15.531 7.8989 22.452 12.062 20.903 12.574 42.744 24.15 63.281 37.269q-0.30439 49.385-0.0485 98.771c-14.995-7.2796-31.634-18.089-46.197-26.668-12.366-7.2841-28.122-15.454-39.646-23.38-0.56183-32.683-0.50883-65.374 0.15901-98.055" fill="#f8aa17"/><path d="m611.78 469.43 6.7026-4.1827c0.4437 31.429-1.0934 67.813 0.81775 98.472-7.0448 4.3432-14.406 9.118-21.796 12.756-9.1892 5.8424-19.335 11.238-28.871 16.634-11.365 6.433-24.024 14.592-35.95 19.708l-0.0515-0.38011c-1.7764-31.797 1.2191-64.856-0.69963-96.656 9.121-6.5708 21.085-12.883 30.987-18.536z" fill="#33a2b3"/><path d="m611.78 469.43 6.7026-4.1827c0.4437 31.429-1.0934 67.813 0.81775 98.472-7.0448 4.3432-14.406 9.118-21.796 12.756-0.14235-0.19687-0.30287-0.38314-0.42856-0.59061-4.3538-7.1493 5.5335-63.528 7.6157-74.024 2.1534-10.858 5.1625-21.527 7.0888-32.43" fill="#47b4cd"/><path d="m423.71 465.44c27.306 14.656 58.444 33.623 85.539 49.35 0.68449 32.774 0.60877 65.56-0.22716 98.329a1927.8 1927.8 0 0 1-85.266-48.631c-1.0934-33.184-0.47854-65.866-0.0454-99.049" fill="#f8aa17"/><g fill="#47b4cd"><path d="m726.24 403.25c1.7642 2.7107 1.1055 85.71 1.472 97.855-25.413 12.725-59.475 34.322-84.546 49.221l-0.92376-0.38919c-2.0217-3.8526-0.98131-88.642-0.90408-98.323 10.086-6.4406 23.373-13.145 33.948-19.278 16.779-9.7313 33.916-19.894 50.954-29.086"/><path d="m725.7 529 1.0086 0.82533c1.5053 6.4345 0.686 28.781 0.6754 36.452l0.31196 59.961c-28.137 15.618-55.895 32.742-84.105 48.343l-1.1009-0.14083c-2.5441-6.3967-1.0449-84.22-0.90408-97.06 24.636-15.733 58.268-34.088 84.114-48.381"/><path d="m834.63 340.47c2.4987 3.848 1.3402 33.277 1.2978 39.707l6e-3 58.567c-27.799 15.599-55.986 32.253-83.643 48.214l-0.73901-0.50277c-2.3548-4.8914-1.163-85.486-1.1055-97.383a2865.2 2865.2 0 0 1 84.184-48.602"/><path d="m833.93 466.37 1.3932 0.33013c1.1388 5.4517 0.83593 26.565 0.83593 33.149l0.10146 63.856c-28.117 15.851-55.592 32.559-83.788 48.422l-1.2478-0.82381c-1.2176-11.025-0.84805-27.08-0.86319-38.445l-0.0318-58.385c9.3951-6.059 21.035-12.312 30.879-17.936z"/></g><path d="m616.26 717.49 1.2115 0.0151c2.0292 2.217 1.3538 86.909 1.3538 94.816-8.2594 6.1892-22.92 14.312-32.067 19.59l-51.802 29.697-1.322 0.12418c-2.3079-5.5835-1.4023-84.903-1.4159-96.4 25.413-14.588 58.455-35.053 84.041-47.842" fill="#33a2b3"/><path d="m834.65 590.83 0.55577 0.47248c2.9984 7.8898 0.73144 84.804 0.4528 97.162-12.371 6.0272-24.353 13.369-36.254 20.315l-47.831 27.743c-2.6956-3.0242-1.3735-89.033-1.26-97.49 26-12.945 58.503-33.283 84.337-48.202" fill="#47b4cd"/><path d="m423.71 716.95c11.055 5.111 21.711 11.692 32.286 17.803l53.595 31.144c-1.2872 31.387 0.0257 65.245 0.0712 96.942-12.403-5.7243-27.555-15.911-39.731-22.734-15.557-8.7182-31.376-17.38-46.44-26.875-0.86167-11.956-0.45734-26.901-0.3483-39.063z" fill="#f8aa17"/><path d="m206.62 591.18c28.185 15.004 57.431 32.78 85.221 48.847-0.18778 32.507 0.4846 64.818-0.0303 97.374a3838.9 3838.9 0 0 1-46.346-26.577c-13.563-7.8626-26.203-14.8-38.865-24.195-0.71176-16.249-0.62695-31.891-0.61029-48.127 0.0182-15.943-0.42403-31.382 0.62997-47.322" fill="#f8aa17"/><path d="m725.64 654.12 1.1358 0.5906c0.8435 8.6985 0.35739 25.238 0.37859 34.411l0.48763 61.623c-28.085 15.01-56.271 31.991-83.961 47.957-0.68449 0.0712-0.17869 0.0606-1.4432-0.46642-0.91467-6.7995-0.54214-24.66-0.55728-32.062l0.0575-63.873c28.039-15.999 55.517-32.797 83.902-48.18" fill="#47b4cd"/><path d="m314.95 653.74c19.688 10.608 38.744 22.499 58.373 33.234 9.5526 5.2246 18.472 10.464 27.086 17.162l-0.0318 95.423c-9.6844-4.1857-25.328-13.938-34.808-19.529l-50.424-29.391z" fill="#f8aa17"/></g></svg>
